<?xml version="1.0" encoding="utf-8"?>
<svg viewBox="-975.503 -790.6403 2511.9615 1405.9149" xmlns="http://www.w3.org/2000/svg">
  <defs>
    <linearGradient gradientUnits="userSpaceOnUse" x1="49.989" y1="27.5" x2="49.989" y2="72.619" id="gradient-2">
      <stop offset="0" style="stop-color: #bada55"/>
      <stop offset="1" style="stop-color: #758d29"/>
    </linearGradient>
    <linearGradient gradientUnits="userSpaceOnUse" x1="45.8" y1="11.32" x2="45.8" y2="40.08" id="gradient-0">
      <stop offset="0" style="stop-color: #bada55"/>
      <stop offset="1" style="stop-color: #758d29"/>
    </linearGradient>
  </defs>
  <g id="SvgjsG3075" featurekey="symbolFeature-0" transform="matrix(10.504469974632173, 0, 0, 10.504469974632173, -244.63094220898074, -1079.5131699829908)" fill="url(#SvgjsLinearGradient3086)">
    <path xmlns="http://www.w3.org/2000/svg" d="M53.2,53.6c0,0,33.8-2.3,43.1-26.1C96.3,27.5,110.3,53.6,53.2,53.6z M56.8,55c37.7,11.1,34.6-6.6,34.6-6.6  C81.9,56.2,56.8,55,56.8,55z M56.2,56.7c27.9,18,29.6,2.9,29.6,2.9C76.2,63.7,56.2,56.7,56.2,56.7z M55.8,58.7  c16.1,19.7,20.9,9.1,20.9,9.1C68.7,68.4,55.8,58.7,55.8,58.7z M54.9,60.9c6.2,16.6,11.7,10.7,11.7,10.7  C61.3,70.3,54.9,60.9,54.9,60.9z M46.8,53.6c0,0-33.8-2.3-43.1-26.1C3.7,27.5-10.4,53.6,46.8,53.6z M8.5,48.4c0,0-3.1,17.7,34.6,6.6  C43.1,55,18,56.2,8.5,48.4z M14.1,59.7c0,0,1.7,15.1,29.6-2.9C43.7,56.7,23.7,63.7,14.1,59.7z M23.3,67.7c0,0,4.8,10.6,20.9-9.1  C44.2,58.7,31.2,68.4,23.3,67.7z M33.3,71.6c0,0,5.5,5.9,11.7-10.7C45,60.9,38.7,70.3,33.3,71.6z" style="fill: url('#gradient-2');"/>
  </g>
  <g id="SvgjsG3076" featurekey="nameFeature-0" transform="matrix(27.423161266615235, 0, 0, 27.423161266615235, -975.5029907226567, -483.84566366037325)" fill="url(#SvgjsLinearGradient3090)">
    <path d="M13.84 11.36 l0 3.84 l-4.76 0 l0 24.84 l-3.84 0 l0 -24.84 l-5.24 0 l0 -3.84 l13.84 0 z M20.08 40.04 c-3 0 -5.4 -2.44 -5.4 -5.4 l0 -17.96 c0 -2.96 2.4 -5.36 5.4 -5.36 c2.96 0 5.36 2.4 5.36 5.36 l0 17.96 c0 2.96 -2.4 5.4 -5.36 5.4 z M20.08 15.120000000000001 c-0.88 0 -1.56 0.72 -1.56 1.56 l0 17.96 c0 0.88 0.68 1.56 1.56 1.56 c0.84 0 1.56 -0.68 1.56 -1.56 l0 -17.96 c0 -0.84 -0.72 -1.56 -1.56 -1.56 z M31.24 34 l0 5.96 l-3.8 0 l0 -28.52 l5.92 0 c2.64 0 4.76 2.16 4.76 4.8 l0 13 c0 2.64 -2.12 4.76 -4.76 4.76 l-2.12 0 z M31.24 15.239999999999998 l0 14.96 l2.12 0 c0.56 0 0.96 -0.4 0.96 -0.96 l0 -13 c0 -0.56 -0.4 -1 -0.96 -1 l-2.12 0 z M61.959999999999994 11.36 l0 3.84 l-4.76 0 l0 24.84 l-3.84 0 l0 -24.84 l-5.24 0 l0 -3.84 l13.84 0 z M67.28 11.36 l0 28.48 l-3.8 0 l0 -28.48 l3.8 0 z M78.6 24.92 l-5.52 0 l0 11.28 l5.56 0 l0 3.8 l-9.36 0 l0 -28.56 l9.36 0 l0 3.8 l-5.56 0 l0 5.88 l5.52 0 l0 3.8 z M91.6 40.08 l-4.08 0 l-2.2 -6.04 l-0.88 0 l0 6.04 l-3.8 0 l0 -28.64 l5.96 0 c2.64 0 4.76 2.12 4.76 4.76 l0 13.08 c0 1.72 -0.88 3.2 -2.24 4.04 z M84.44 15.239999999999998 l0 15 l2.16 0 c0.52 0 0.96 -0.44 0.96 -0.96 l0 -13.08 c0 -0.52 -0.44 -0.96 -0.96 -0.96 l-2.16 0 z" style="stroke-opacity: 0; fill: url('#gradient-0');"/>
  </g>
</svg>