<?xml version="1.0" encoding="iso-8859-1"?>
<!-- Uploaded to: SVG Repo, www.svgrepo.com, Generator: SVG Repo Mixer Tools -->
<svg fill="#000000" version="1.1" id="Layer_1" xmlns="http://www.w3.org/2000/svg" xmlns:xlink="http://www.w3.org/1999/xlink" 
	 viewBox="0 0 512 512" xml:space="preserve">
<g>
	<g>
		<polygon points="345.043,345.043 345.043,311.652 311.652,311.652 311.652,345.043 211.478,345.043 211.478,378.435 
			389.565,378.435 389.565,345.043 		"/>
	</g>
</g>
<g>
	<g>
		<rect x="345.043" y="445.217" width="66.783" height="33.391"/>
	</g>
</g>
<g>
	<g>
		<polygon points="389.565,311.652 389.565,345.043 478.609,345.043 478.609,378.435 512,378.435 512,311.652 		"/>
	</g>
</g>
<g>
	<g>
		<rect x="445.217" y="378.435" width="33.391" height="33.391"/>
	</g>
</g>
<g>
	<g>
		<rect x="411.826" y="411.826" width="33.391" height="33.391"/>
	</g>
</g>
<g>
	<g>
		<rect x="166.957" y="478.609" width="178.087" height="33.391"/>
	</g>
</g>
<g>
	<g>
		<path d="M311.652,311.652v-33.391H0V512h133.565v-33.391h33.391v-33.391h-33.391V311.652H311.652z M100.174,478.609H33.391
			V311.652h66.783V478.609z"/>
	</g>
</g>
<g>
	<g>
		<rect x="333.913" y="100.174" width="77.913" height="33.391"/>
	</g>
</g>
<g>
	<g>
		<rect x="333.913" y="211.478" width="77.913" height="33.391"/>
	</g>
</g>
<g>
	<g>
		<rect x="411.826" y="133.565" width="33.391" height="77.913"/>
	</g>
</g>
<g>
	<g>
		<rect x="300.522" y="133.565" width="33.391" height="77.913"/>
	</g>
</g>
<g>
	<g>
		<rect x="155.826" width="66.783" height="33.391"/>
	</g>
</g>
<g>
	<g>
		<rect x="155.826" y="100.174" width="66.783" height="33.391"/>
	</g>
</g>
<g>
	<g>
		<rect x="222.609" y="33.391" width="33.391" height="66.783"/>
	</g>
</g>
<g>
	<g>
		<rect x="122.435" y="33.391" width="33.391" height="66.783"/>
	</g>
</g>
</svg>